<svg width="60" height="26" viewBox="0 0 60 26" fill="none" xmlns="http://www.w3.org/2000/svg">
<path d="M19.1622 13.7632C18.1155 13.7632 1.88088 13.7632 0.837773 13.7632C0.415734 13.7632 0.0742188 14.1047 0.0742188 14.5265C0.0742188 14.9485 0.415734 15.2898 0.837773 15.2898H1.60133V25.2131C1.60133 25.6351 1.94284 25.9764 2.36488 25.9764H17.6353C18.0573 25.9764 18.3988 25.635 18.3988 25.2131V15.2899H19.1624C19.5844 15.2899 19.926 14.9485 19.926 14.5266C19.9258 14.1047 19.5843 13.7632 19.1622 13.7632ZM15.3446 22.1598C15.3446 22.5818 15.0031 22.9231 14.5811 22.9231H5.41884C4.9968 22.9231 4.65529 22.5817 4.65529 22.1598V17.5799C4.65529 17.1579 4.9968 16.8166 5.41884 16.8166H14.5811C15.0031 16.8166 15.3446 17.158 15.3446 17.5799V22.1598ZM6.1824 21.3965H13.8176V18.3433H6.1824V21.3965ZM5.41884 7.65659H8.328C8.10628 8.62098 7.65889 9.24291 7.21279 9.83253C6.70653 10.5019 6.18231 11.1945 6.18231 12.2365H13.8175C13.8175 11.2101 13.2941 10.5064 12.7878 9.82651C12.3433 9.22916 11.8972 8.6013 11.674 7.6565H14.5811C14.8316 7.6565 15.0658 7.53353 15.2089 7.32779C15.3513 7.12206 15.3842 6.85969 15.2962 6.62482L13.0056 0.518193C12.8937 0.220764 12.6089 0.0231934 12.2905 0.0231934H7.70934C7.39094 0.0231934 7.10614 0.220764 6.99425 0.518193L4.70367 6.62482C4.61567 6.85961 4.6485 7.12206 4.7909 7.32779C4.93424 7.53361 5.16834 7.65659 5.41884 7.65659Z" fill="url(#paint0_linear_9_2)"/>
<path d="M31.2432 23.5381L29.0195 24.333V8.9502L31.2432 8.15527V23.5381ZM44.7783 8.23047C44.5492 8.57422 44.277 8.89648 43.9619 9.19727C43.6468 9.49805 43.2995 9.76302 42.9199 9.99219C42.5475 10.2214 42.1536 10.404 41.7383 10.54C41.3229 10.6689 40.9076 10.7334 40.4922 10.7334L40.2451 10.7549C39.973 11.0986 39.7653 11.4316 39.6221 11.7539C39.4788 12.0762 39.4072 12.4557 39.4072 12.8926V19.7568C39.4072 20.7093 39.2031 21.5579 38.7949 22.3027C38.3939 23.0404 37.7995 23.6777 37.0117 24.2148L36.6572 23.8066C36.779 23.6706 36.8757 23.5166 36.9473 23.3447C37.0189 23.1657 37.0726 22.9831 37.1084 22.7969C37.1442 22.6107 37.1657 22.4245 37.1729 22.2383C37.1872 22.0449 37.1943 21.8623 37.1943 21.6904V14.1387C37.1943 13.8021 37.2624 13.4762 37.3984 13.1611C37.5417 12.8389 37.7207 12.5345 37.9355 12.248C38.1504 11.9616 38.3867 11.693 38.6445 11.4424C38.9095 11.1917 39.1637 10.9626 39.4072 10.7549L35.8516 10.7334C35.5794 10.7334 35.3359 10.762 35.1211 10.8193C34.9134 10.8695 34.7201 10.9447 34.541 11.0449C34.362 11.1452 34.1901 11.2705 34.0254 11.4209C33.8607 11.5713 33.6924 11.7467 33.5205 11.9473L33.209 11.6143C33.4453 11.292 33.7103 10.9518 34.0039 10.5938C34.3047 10.2357 34.627 9.90983 34.9707 9.61621C35.3216 9.32259 35.694 9.0791 36.0879 8.88574C36.4889 8.69238 36.9079 8.5957 37.3447 8.5957H41.9854C42.1715 8.5957 42.3792 8.58496 42.6084 8.56348C42.8447 8.54199 43.0811 8.50618 43.3174 8.45605C43.5537 8.40592 43.7757 8.34147 43.9834 8.2627C44.1982 8.17676 44.3773 8.06934 44.5205 7.94043L44.7783 8.23047ZM58.0664 16.3193C58.0664 16.9782 57.9948 17.637 57.8516 18.2959C57.7083 18.9476 57.4971 19.5706 57.2178 20.165C56.9456 20.7523 56.609 21.3001 56.208 21.8086C55.8141 22.3171 55.3594 22.7611 54.8438 23.1406C54.3281 23.513 53.7588 23.8031 53.1357 24.0107C52.5199 24.2256 51.8538 24.333 51.1377 24.333C50.4215 24.333 49.752 24.2256 49.1289 24.0107C48.513 23.8031 47.9473 23.513 47.4316 23.1406C46.916 22.7611 46.4577 22.3171 46.0566 21.8086C45.6556 21.3001 45.3154 20.7523 45.0361 20.165C44.7568 19.5706 44.5456 18.9476 44.4023 18.2959C44.2591 17.637 44.1875 16.9782 44.1875 16.3193C44.1875 15.6605 44.2591 15.0052 44.4023 14.3535C44.5456 13.7018 44.7568 13.0824 45.0361 12.4951C45.3154 11.9007 45.6556 11.3493 46.0566 10.8408C46.4577 10.3252 46.916 9.88118 47.4316 9.50879C47.9473 9.13639 48.513 8.84635 49.1289 8.63867C49.752 8.42383 50.4215 8.31641 51.1377 8.31641C51.8538 8.31641 52.5199 8.42383 53.1357 8.63867C53.7588 8.84635 54.3281 9.13639 54.8438 9.50879C55.3594 9.88118 55.8141 10.3252 56.208 10.8408C56.609 11.3493 56.9456 11.9007 57.2178 12.4951C57.4971 13.0824 57.7083 13.7018 57.8516 14.3535C57.9948 15.0052 58.0664 15.6605 58.0664 16.3193ZM50.1709 9.41211C49.7054 9.41211 49.29 9.49447 48.9248 9.65918C48.5667 9.81673 48.248 10.0352 47.9688 10.3145C47.6895 10.5866 47.4531 10.9053 47.2598 11.2705C47.0664 11.6286 46.9089 12.0081 46.7871 12.4092C46.6654 12.8102 46.5758 13.2184 46.5186 13.6338C46.4613 14.0492 46.4326 14.4466 46.4326 14.8262C46.4326 15.3919 46.4756 15.9935 46.5615 16.6309C46.6475 17.2611 46.7835 17.8841 46.9697 18.5C47.1631 19.1159 47.4066 19.7067 47.7002 20.2725C48.001 20.8311 48.3626 21.3252 48.7852 21.7549C49.2077 22.1846 49.6911 22.5283 50.2354 22.7861C50.7868 23.0368 51.4098 23.1621 52.1045 23.1621C52.5628 23.1621 52.971 23.0833 53.3291 22.9258C53.6943 22.7611 54.0166 22.5426 54.2959 22.2705C54.5752 21.9912 54.8115 21.6689 55.0049 21.3037C55.1982 20.9385 55.3558 20.5553 55.4775 20.1543C55.6064 19.7533 55.6995 19.3451 55.7568 18.9297C55.8141 18.5072 55.8428 18.1061 55.8428 17.7266C55.8428 17.1608 55.7998 16.5628 55.7139 15.9326C55.6279 15.3024 55.4883 14.6794 55.2949 14.0635C55.1087 13.4476 54.8652 12.8604 54.5645 12.3018C54.2708 11.736 53.9128 11.2419 53.4902 10.8193C53.0677 10.3896 52.5807 10.0495 52.0293 9.79883C51.485 9.54102 50.8656 9.41211 50.1709 9.41211Z" fill="white"/>
<defs>
<linearGradient id="paint0_linear_9_2" x1="10" y1="25.9765" x2="10" y2="0.0233666" gradientUnits="userSpaceOnUse">
<stop stop-color="#FFA68D"/>
<stop offset="1" stop-color="#FD3A84"/>
</linearGradient>
</defs>
</svg>
