<?xml version="1.0" encoding="utf-8"?><svg viewBox="0 0 40 38" xmlns="http://www.w3.org/2000/svg" xmlns:xlink="http://www.w3.org/1999/xlink"><style>:root>svg{display:none}:root>svg:target{display:block}</style><svg fill="none" viewBox="0 0 18 18" id="arrivals-arrow" xmlns="http://www.w3.org/2000/svg"><path d="M9 18A9 9 0 119 0a9 9 0 010 18z" fill="#FF8531"/><path d="M1.385 9c0-4.737 3.66-8.617 8.307-8.97A9 9 0 109 18c.233 0 .463-.012.692-.03-4.646-.353-8.307-4.232-8.307-8.97z" fill="#FAFAFA"/><path d="M9.692 10.384v2.77L15.23 9 9.692 4.846v2.77H2.77v2.768h6.923z" fill="#F0F0F0"/></svg><svg fill="none" viewBox="0 0 32 32" id="facebook" xmlns="http://www.w3.org/2000/svg"><g clip-path="url(#bclip0_1922_1581)"><path d="M21.33 5.313h2.92V.225C23.748.156 22.014 0 19.996 0c-4.212 0-7.098 2.65-7.098 7.519V12H8.25v5.688h4.648V32h5.699V17.69h4.46L23.764 12h-5.17V8.083c.002-1.644.445-2.77 2.735-2.77z" fill="#fff"/></g><defs><clipPath id="bclip0_1922_1581"><path fill="#fff" d="M0 0h32v32H0z"/></clipPath></defs></svg><svg fill="none" viewBox="0 0 32 31" id="icon-cart" xmlns="http://www.w3.org/2000/svg"><path d="M31.798 4.039a.923.923 0 00-.721-.347H6.509L5.822.715A.923.923 0 004.923 0h-4a.923.923 0 000 1.846H4.19l4.663 20.208c.097.419.47.715.9.715h18.494a.923.923 0 100-1.846h-17.76l-.71-3.077h18.532c.431 0 .806-.3.9-.72l2.77-12.308a.923.923 0 00-.18-.78zM27.569 16H9.35L6.937 5.538h22.987L27.57 16zM13.538 24a3.388 3.388 0 00-3.384 3.385 3.388 3.388 0 003.384 3.384 3.388 3.388 0 003.385-3.384A3.388 3.388 0 0013.538 24zm0 4.923A1.54 1.54 0 0112 27.385c0-.849.69-1.539 1.538-1.539.849 0 1.539.69 1.539 1.539a1.54 1.54 0 01-1.539 1.538zM24.615 24a3.388 3.388 0 00-3.384 3.385 3.388 3.388 0 003.384 3.384A3.388 3.388 0 0028 27.385 3.388 3.388 0 0024.615 24zm0 4.923a1.54 1.54 0 01-1.538-1.538c0-.849.69-1.539 1.538-1.539.849 0 1.539.69 1.539 1.539a1.54 1.54 0 01-1.539 1.538z" fill="#fff"/></svg><svg fill="none" viewBox="0 0 21 20" id="icon-search" xmlns="http://www.w3.org/2000/svg"><path d="M9.02 16.472C4.477 16.472.78 12.777.78 8.236S4.476 0 9.02 0c4.545 0 8.242 3.695 8.242 8.236s-3.697 8.236-8.242 8.236zm0-14.91c-3.682 0-6.679 2.994-6.679 6.674s2.997 6.675 6.68 6.675 6.68-2.995 6.68-6.675c0-3.68-2.997-6.675-6.68-6.675zm11.53 18.21a.78.78 0 000-1.105l-3.496-3.493a.782.782 0 00-1.105 1.104l3.496 3.493a.779.779 0 001.105 0z" fill="#31352B"/></svg><svg fill="none" viewBox="0 0 32 32" id="instagram" xmlns="http://www.w3.org/2000/svg"><g clip-path="url(#eclip0_1922_1573)" fill="#fff"><path d="M16.005 7.784a8.21 8.21 0 00-8.21 8.21 8.21 8.21 0 008.21 8.211 8.21 8.21 0 008.211-8.21 8.21 8.21 0 00-8.21-8.21zm0 13.54a5.328 5.328 0 01-5.329-5.33 5.328 5.328 0 015.33-5.329 5.328 5.328 0 015.329 5.33 5.327 5.327 0 01-5.33 5.33z"/><path d="M22.597.101c-2.944-.137-10.236-.13-13.182 0C6.825.223 4.54.848 2.7 2.69-.377 5.767.016 9.913.016 15.995c0 6.224-.347 10.274 2.684 13.305 3.09 3.088 7.296 2.684 13.305 2.684 6.166 0 8.294.004 10.474-.84 2.964-1.15 5.201-3.8 5.42-8.559.138-2.945.13-10.236 0-13.182C31.635 3.785 28.62.379 22.597.1zm4.66 27.163C25.24 29.28 22.441 29.1 15.967 29.1c-6.667 0-9.34.099-11.291-1.857-2.247-2.236-1.84-5.827-1.84-11.27 0-7.367-.756-12.673 6.637-13.051 1.699-.06 2.199-.08 6.475-.08l.06.04c7.105 0 12.68-.744 13.015 6.648.076 1.686.093 2.193.093 6.462-.001 6.59.124 9.279-1.859 11.27z"/><path d="M24.541 9.379a1.919 1.919 0 100-3.838 1.919 1.919 0 000 3.838z"/></g><defs><clipPath id="eclip0_1922_1573"><path fill="#fff" d="M0 0h32v32H0z"/></clipPath></defs></svg><svg fill="none" viewBox="0 0 9 12" id="position" xmlns="http://www.w3.org/2000/svg"><path d="M4.194 0C1.88 0 0 1.893 0 4.219c0 .786.216 1.553.626 2.218l3.329 5.397a.349.349 0 00.297.166h.003a.349.349 0 00.297-.17l3.244-5.45a4.233 4.233 0 00.591-2.161C8.387 1.893 6.506 0 4.194 0zm3.002 6.02l-2.95 4.953L1.22 6.067a3.527 3.527 0 01-.526-1.848c0-1.939 1.573-3.52 3.5-3.52C6.12.698 7.69 2.28 7.69 4.218c0 .635-.173 1.258-.495 1.8z" fill="#fff"/><path d="M4.219 2.11c-1.163 0-2.11.946-2.11 2.109 0 1.155.931 2.11 2.11 2.11 1.193 0 2.11-.967 2.11-2.11 0-1.163-.947-2.11-2.11-2.11zm0 3.52c-.78 0-1.411-.634-1.411-1.411 0-.776.635-1.411 1.41-1.411a1.41 1.41 0 010 2.822z" fill="#fff"/></svg><svg fill="none" viewBox="0 0 8 9" id="tel" xmlns="http://www.w3.org/2000/svg"><path d="M5.75 9a2.01 2.01 0 01-.765-.154 8.106 8.106 0 01-2.961-2.123A9.383 9.383 0 01.137 3.392a2.782 2.782 0 01.272-2.31C.612.757.882.486 1.19.3c.33-.2.689-.3 1.068-.3.117 0 .22.093.244.222l.392 2.06a.305.305 0 01-.067.258l-.67.754c.632 1.415 1.658 2.57 2.916 3.281l.67-.754a.232.232 0 01.23-.076l1.83.441c.116.028.198.143.198.275 0 .427-.09.83-.266 1.2-.166.347-.407.65-.696.879a2.13 2.13 0 01-.965.433A1.981 1.981 0 015.75 9zM2.057.575c-.5.062-.944.357-1.238.83A2.142 2.142 0 00.607 3.2c.77 2.386 2.428 4.251 4.549 5.118.54.22 1.122.134 1.595-.239.42-.331.683-.83.738-1.393L6 6.327l-.7.788a.23.23 0 01-.283.055c-1.487-.786-2.691-2.14-3.39-3.813a.308.308 0 01.05-.319l.7-.787-.32-1.676z" fill="#fff"/></svg><svg fill="none" viewBox="0 0 40 38" id="telegram" xmlns="http://www.w3.org/2000/svg"><g clip-path="url(#hclip0_1922_1577)" filter="url(#hfilter0_d_1922_1577)"><path d="M16.556 20.241l-.53 7.446c.758 0 1.086-.326 1.48-.716l3.55-3.394 7.357 5.388c1.35.752 2.3.356 2.664-1.24l4.83-22.63.001-.002c.428-1.994-.721-2.774-2.036-2.285L5.485 13.676c-1.937.752-1.908 1.832-.329 2.321l7.257 2.258L29.271 7.707c.793-.526 1.514-.235.921.29L16.556 20.241z" fill="#fff"/></g><defs><clipPath id="hclip0_1922_1577"><path fill="#fff" transform="translate(4)" d="M0 0h32v32H0z"/></clipPath><filter id="hfilter0_d_1922_1577" x="0" y="0" width="40" height="40" filterUnits="userSpaceOnUse" color-interpolation-filters="sRGB"><feFlood flood-opacity="0" result="BackgroundImageFix"/><feColorMatrix in="SourceAlpha" values="0 0 0 0 0 0 0 0 0 0 0 0 0 0 0 0 0 0 127 0" result="hardAlpha"/><feOffset dy="4"/><feGaussianBlur stdDeviation="2"/><feComposite in2="hardAlpha" operator="out"/><feColorMatrix values="0 0 0 0 0 0 0 0 0 0 0 0 0 0 0 0 0 0 0.25 0"/><feBlend in2="BackgroundImageFix" result="effect1_dropShadow_1922_1577"/><feBlend in="SourceGraphic" in2="effect1_dropShadow_1922_1577" result="shape"/></filter></defs></svg><svg fill="none" viewBox="0 0 32 32" id="youtube" xmlns="http://www.w3.org/2000/svg"><g clip-path="url(#iclip0_1922_1579)"><path d="M31.292 7.905l.04.262c-.387-1.372-1.43-2.43-2.757-2.816l-.028-.007c-2.495-.677-12.534-.677-12.534-.677S6 4.653 3.48 5.344A4.059 4.059 0 00.703 8.14l-.007.028c-.932 4.868-.939 10.717.041 15.93l-.041-.265c.387 1.372 1.43 2.43 2.757 2.816l.028.007c2.492.678 12.534.678 12.534.678s10.012 0 12.533-.678a4.058 4.058 0 002.779-2.795l.006-.028c.424-2.264.667-4.87.667-7.53l-.001-.295L32 15.7a43.01 43.01 0 00-.708-7.795zM12.811 20.868v-9.724l8.354 4.87-8.354 4.854z" fill="#fff"/></g><defs><clipPath id="iclip0_1922_1579"><path fill="#fff" d="M0 0h32v32H0z"/></clipPath></defs></svg></svg>